<svg xmlns="http://www.w3.org/2000/svg" xmlns:xlink="http://www.w3.org/1999/xlink" width="256" zoomAndPan="magnify" viewBox="0 0 192 191.999996" height="256" preserveAspectRatio="xMidYMid meet" version="1.0"><defs fill="#000000"><g/></defs><g fill="#ffffff" fill-opacity="1"><g transform="translate(25.705877, 116.24225)"><g><path d="M 82.683594 -114.851562 C 52.566406 -117.316406 21.082031 -100.480469 9.855469 -68.992188 C -4.929688 -27.652344 16.5625 -2.464844 29.84375 6.160156 C 42.164062 13.824219 56.535156 17.113281 70.5 17.113281 C 87.335938 17.113281 102.667969 12.320312 111.703125 3.96875 L 110.472656 2.464844 C 93.632812 17.386719 56.945312 20.671875 30.9375 3.96875 C 9.171875 -10.128906 1.367188 -38.742188 12.046875 -68.308594 C 23.820312 -101.4375 54.757812 -115.398438 82.546875 -113.484375 C 126.078125 -110.746094 137.164062 -78.164062 133.195312 -55.578125 C 128.132812 -27.652344 110.199219 -18.617188 99.382812 -17.796875 C 92.949219 -17.660156 88.84375 -21.492188 91.582031 -33.402344 C 94.730469 -46.132812 100.34375 -75.015625 100.34375 -75.015625 C 96.371094 -79.261719 87.472656 -84.875 73.511719 -84.597656 C 57.632812 -84.1875 40.246094 -68.035156 36.414062 -45.859375 C 33.539062 -25.597656 44.765625 -14.785156 59.957031 -16.5625 C 72.554688 -17.660156 80.765625 -29.15625 86.105469 -40.109375 C 86.105469 -39.5625 85.695312 -38.742188 85.421875 -38.191406 C 80.492188 -19.984375 88.296875 -16.015625 97.195312 -16.015625 C 104.996094 -16.015625 128.679688 -21.902344 134.839844 -55.03125 C 139.082031 -78.027344 128.132812 -112.113281 82.683594 -114.851562 Z M 63.105469 -19.300781 C 47.773438 -16.976562 40.65625 -35.59375 44.902344 -55.578125 C 49.417969 -78.164062 67.214844 -84.460938 76.933594 -83.230469 C 88.160156 -82 91.582031 -74.46875 92.8125 -71.59375 C 92.8125 -71.59375 90.347656 -58.589844 87.746094 -47.226562 C 83.503906 -35.042969 74.332031 -20.398438 63.105469 -19.300781 Z M 63.105469 -19.300781 " fill="#000000"/></g></g></g><g fill="#ffffff" fill-opacity="1"><g transform="translate(5.98409, 164.339592)"><g><path d="M 2.839844 -3.839844 L 4.746094 -8.648438 L 6.636719 -3.839844 Z M 9.324219 0 L 4.746094 -11.167969 L 0.152344 0 L 1.320312 0 L 2.441406 -2.839844 L 7.035156 -2.839844 L 8.15625 0 Z M 9.324219 0 " fill="#000000"/></g></g></g><g fill="#ffffff" fill-opacity="1"><g transform="translate(18.88648, 164.339592)"><g><path d="M 0.308594 -9.476562 L 2.839844 -9.476562 L 2.839844 -0.03125 L 3.917969 -0.03125 L 3.917969 -9.476562 L 6.453125 -9.476562 L 6.453125 -10.476562 L 0.308594 -10.476562 Z M 0.308594 -9.476562 " fill="#000000"/></g></g></g><g fill="#ffffff" fill-opacity="1"><g transform="translate(29.070155, 164.339592)"><g><path d="M 10.78125 0 L 11.875 0 L 9.445312 -11.136719 L 6.019531 -2.195312 L 2.597656 -11.136719 L 0.152344 0 L 1.257812 0 L 2.871094 -7.433594 L 6.019531 0.613281 L 9.15625 -7.433594 Z M 10.78125 0 " fill="#000000"/></g></g></g><g fill="#ffffff" fill-opacity="1"><g transform="translate(44.522305, 164.339592)"><g><path d="M 7.359375 0 L 7.359375 -1 L 2.226562 -1 L 2.226562 -4.714844 L 7.203125 -4.714844 L 7.203125 -5.730469 L 2.226562 -5.730469 L 2.226562 -9.445312 L 7.359375 -9.445312 L 7.359375 -10.445312 L 1.152344 -10.445312 L 1.152344 0 Z M 7.359375 0 " fill="#000000"/></g></g></g><g fill="#ffffff" fill-opacity="1"><g transform="translate(56.457013, 164.339592)"><g><path d="M 11.457031 -4.882812 L 6.019531 -4.882812 L 6.019531 -3.949219 L 10.261719 -3.949219 C 9.9375 -3.042969 9.398438 -2.304688 8.632812 -1.765625 C 7.863281 -1.214844 7.003906 -0.953125 6.066406 -0.953125 C 4.867188 -0.953125 3.855469 -1.367188 3.011719 -2.210938 C 2.179688 -3.054688 1.765625 -4.085938 1.765625 -5.269531 C 1.765625 -6.453125 2.179688 -7.464844 3.027344 -8.308594 C 3.855469 -9.140625 4.867188 -9.570312 6.066406 -9.570312 C 6.957031 -9.570312 7.773438 -9.308594 8.492188 -8.800781 C 9.230469 -8.292969 9.753906 -7.632812 10.089844 -6.789062 L 11.226562 -6.789062 C 10.875 -7.941406 10.214844 -8.863281 9.261719 -9.570312 C 8.308594 -10.277344 7.203125 -10.644531 5.960938 -10.644531 C 5.285156 -10.644531 4.625 -10.492188 3.976562 -10.214844 C 3.316406 -9.9375 2.75 -9.554688 2.257812 -9.0625 C 1.765625 -8.570312 1.382812 -8.003906 1.105469 -7.359375 C 0.828125 -6.695312 0.691406 -5.992188 0.691406 -5.253906 C 0.691406 -4.515625 0.828125 -3.808594 1.105469 -3.164062 C 1.382812 -2.503906 1.765625 -1.933594 2.257812 -1.445312 C 2.75 -0.953125 3.316406 -0.566406 3.976562 -0.292969 C 4.625 -0.015625 5.328125 0.121094 6.066406 0.121094 C 7.328125 0.121094 8.464844 -0.277344 9.476562 -1.089844 C 10.492188 -1.921875 11.121094 -2.964844 11.351562 -4.238281 Z M 11.457031 -4.882812 " fill="#000000"/></g></g></g><g fill="#ffffff" fill-opacity="1"><g transform="translate(72.032039, 164.339592)"><g><path d="M 2.839844 -3.839844 L 4.746094 -8.648438 L 6.636719 -3.839844 Z M 9.324219 0 L 4.746094 -11.167969 L 0.152344 0 L 1.320312 0 L 2.441406 -2.839844 L 7.035156 -2.839844 L 8.15625 0 Z M 9.324219 0 " fill="#000000"/></g></g></g><g fill="#ffffff" fill-opacity="1"><g transform="translate(84.93443, 164.339592)"><g/></g></g><g fill="#ffffff" fill-opacity="1"><g transform="translate(92.506904, 164.339592)"><g><path d="M 4.039062 -4.914062 C 5.390625 -4.59375 6.3125 -4.238281 6.804688 -3.839844 C 7.140625 -3.5625 7.3125 -3.210938 7.3125 -2.78125 C 7.3125 -2.351562 7.21875 -1.996094 7.035156 -1.75 C 6.574219 -1.105469 5.746094 -0.785156 4.578125 -0.785156 C 2.949219 -0.785156 2.027344 -1.335938 1.828125 -2.441406 L 0.566406 -2.441406 C 0.9375 -0.675781 2.273438 0.199219 4.578125 0.199219 C 5.605469 0.199219 6.464844 -0.015625 7.15625 -0.476562 C 7.988281 -1.015625 8.417969 -1.8125 8.417969 -2.855469 C 8.417969 -3.71875 8.078125 -4.378906 7.402344 -4.839844 C 6.925781 -5.175781 6.160156 -5.484375 5.097656 -5.761719 C 4.023438 -6.035156 3.332031 -6.265625 3.011719 -6.4375 C 2.304688 -6.789062 1.949219 -7.28125 1.964844 -7.925781 C 1.964844 -8.265625 2.027344 -8.554688 2.179688 -8.769531 C 2.582031 -9.371094 3.285156 -9.675781 4.300781 -9.675781 C 5.730469 -9.675781 6.542969 -9.214844 6.757812 -8.324219 L 7.925781 -8.324219 C 7.542969 -9.832031 6.328125 -10.597656 4.300781 -10.597656 C 3.378906 -10.597656 2.566406 -10.351562 1.890625 -9.859375 C 1.199219 -9.371094 0.84375 -8.648438 0.84375 -7.664062 C 0.84375 -6.328125 1.921875 -5.40625 4.039062 -4.914062 Z M 4.039062 -4.914062 " fill="#000000"/></g></g></g><g fill="#ffffff" fill-opacity="1"><g transform="translate(104.748819, 164.339592)"><g><path d="M 10.351562 -5.253906 C 10.351562 -4.054688 9.921875 -3.042969 9.09375 -2.210938 C 8.25 -1.367188 7.234375 -0.953125 6.050781 -0.953125 C 4.867188 -0.953125 3.855469 -1.367188 3.027344 -2.210938 C 2.179688 -3.042969 1.765625 -4.054688 1.765625 -5.253906 C 1.765625 -6.421875 2.179688 -7.433594 3.027344 -8.277344 C 3.855469 -9.109375 4.867188 -9.539062 6.050781 -9.539062 C 7.234375 -9.539062 8.25 -9.109375 9.09375 -8.277344 C 9.921875 -7.433594 10.351562 -6.421875 10.351562 -5.253906 Z M 11.429688 -5.253906 C 11.429688 -5.992188 11.273438 -6.679688 10.996094 -7.34375 C 10.722656 -7.988281 10.335938 -8.554688 9.847656 -9.046875 C 9.355469 -9.523438 8.785156 -9.90625 8.140625 -10.183594 C 7.480469 -10.460938 6.789062 -10.613281 6.050781 -10.613281 C 5.316406 -10.613281 4.609375 -10.460938 3.960938 -10.183594 C 3.316406 -9.90625 2.75 -9.523438 2.257812 -9.046875 C 1.765625 -8.554688 1.382812 -7.988281 1.105469 -7.34375 C 0.828125 -6.679688 0.691406 -5.992188 0.691406 -5.253906 C 0.691406 -4.515625 0.828125 -3.808594 1.105469 -3.164062 C 1.382812 -2.503906 1.765625 -1.933594 2.257812 -1.445312 C 2.75 -0.953125 3.316406 -0.566406 3.960938 -0.292969 C 4.609375 -0.015625 5.316406 0.121094 6.050781 0.121094 C 6.789062 0.121094 7.480469 -0.015625 8.140625 -0.292969 C 8.785156 -0.566406 9.355469 -0.953125 9.847656 -1.445312 C 10.335938 -1.933594 10.722656 -2.503906 10.996094 -3.164062 C 11.273438 -3.808594 11.429688 -4.515625 11.429688 -5.253906 Z M 11.429688 -5.253906 " fill="#000000"/></g></g></g><g fill="#ffffff" fill-opacity="1"><g transform="translate(120.293131, 164.339592)"><g><path d="M 7.359375 -9.445312 L 7.359375 -10.445312 L 1.152344 -10.445312 L 1.152344 0 L 2.226562 0 L 2.226562 -4.714844 L 7.203125 -4.714844 L 7.203125 -5.730469 L 2.226562 -5.730469 L 2.226562 -9.445312 Z M 7.359375 -9.445312 " fill="#000000"/></g></g></g><g fill="#ffffff" fill-opacity="1"><g transform="translate(131.38304, 164.339592)"><g><path d="M 0.308594 -9.476562 L 2.839844 -9.476562 L 2.839844 -0.03125 L 3.917969 -0.03125 L 3.917969 -9.476562 L 6.453125 -9.476562 L 6.453125 -10.476562 L 0.308594 -10.476562 Z M 0.308594 -9.476562 " fill="#000000"/></g></g></g><g fill="#ffffff" fill-opacity="1"><g transform="translate(141.566716, 164.339592)"><g><path d="M 9.445312 0.84375 L 11.875 -10.445312 L 10.78125 -10.445312 L 9.15625 -2.855469 L 6.019531 -11.058594 L 2.871094 -2.855469 L 1.257812 -10.445312 L 0.152344 -10.445312 L 2.597656 0.84375 L 6.019531 -8.25 Z M 9.445312 0.84375 " fill="#000000"/></g></g></g><g fill="#ffffff" fill-opacity="1"><g transform="translate(157.018871, 164.339592)"><g><path d="M 2.839844 -3.839844 L 4.746094 -8.648438 L 6.636719 -3.839844 Z M 9.324219 0 L 4.746094 -11.167969 L 0.152344 0 L 1.320312 0 L 2.441406 -2.839844 L 7.035156 -2.839844 L 8.15625 0 Z M 9.324219 0 " fill="#000000"/></g></g></g><g fill="#ffffff" fill-opacity="1"><g transform="translate(169.921261, 164.339592)"><g><path d="M 2.226562 -5.160156 L 2.226562 -9.414062 L 4.652344 -9.414062 C 5.285156 -9.414062 5.789062 -9.214844 6.175781 -8.816406 C 6.542969 -8.417969 6.742188 -7.925781 6.742188 -7.3125 C 6.742188 -6.695312 6.542969 -6.191406 6.144531 -5.773438 C 5.746094 -5.359375 5.253906 -5.160156 4.652344 -5.160156 Z M 7.816406 -7.296875 C 7.816406 -8.1875 7.480469 -8.953125 6.835938 -9.554688 C 6.207031 -10.136719 5.421875 -10.445312 4.5 -10.445312 L 1.152344 -10.445312 L 1.152344 0 L 2.226562 0 L 2.226562 -4.132812 L 3.472656 -4.132812 L 6.542969 0 L 7.988281 0 L 4.761719 -4.132812 C 5.574219 -4.179688 6.265625 -4.46875 6.835938 -5.007812 C 7.480469 -5.605469 7.816406 -6.375 7.816406 -7.296875 Z M 7.816406 -7.296875 " fill="#000000"/></g></g></g><g fill="#ffffff" fill-opacity="1"><g transform="translate(181.702378, 164.339592)"><g><path d="M 7.359375 0 L 7.359375 -1 L 2.226562 -1 L 2.226562 -4.714844 L 7.203125 -4.714844 L 7.203125 -5.730469 L 2.226562 -5.730469 L 2.226562 -9.445312 L 7.359375 -9.445312 L 7.359375 -10.445312 L 1.152344 -10.445312 L 1.152344 0 Z M 7.359375 0 " fill="#000000"/></g></g></g><g fill="#ffffff" fill-opacity="1"><g transform="translate(25.124089, 185.84359)"><g><path d="M 0.308594 -9.476562 L 2.839844 -9.476562 L 2.839844 -0.03125 L 3.917969 -0.03125 L 3.917969 -9.476562 L 6.453125 -9.476562 L 6.453125 -10.476562 L 0.308594 -10.476562 Z M 0.308594 -9.476562 " fill="#000000"/></g></g></g><g fill="#ffffff" fill-opacity="1"><g transform="translate(35.307765, 185.84359)"><g><path d="M 7.359375 0 L 7.359375 -1 L 2.226562 -1 L 2.226562 -4.714844 L 7.203125 -4.714844 L 7.203125 -5.730469 L 2.226562 -5.730469 L 2.226562 -9.445312 L 7.359375 -9.445312 L 7.359375 -10.445312 L 1.152344 -10.445312 L 1.152344 0 Z M 7.359375 0 " fill="#000000"/></g></g></g><g fill="#ffffff" fill-opacity="1"><g transform="translate(47.242474, 185.84359)"><g><path d="M 10.738281 -3.195312 L 9.554688 -3.195312 C 9.183594 -2.519531 8.679688 -1.964844 8.035156 -1.566406 C 7.386719 -1.152344 6.667969 -0.953125 5.898438 -0.953125 C 4.746094 -0.953125 3.761719 -1.367188 2.949219 -2.226562 C 2.152344 -3.042969 1.765625 -4.039062 1.765625 -5.207031 C 1.765625 -6.375 2.152344 -7.371094 2.949219 -8.203125 C 3.316406 -8.585938 3.761719 -8.894531 4.269531 -9.125 C 4.761719 -9.355469 5.253906 -9.476562 5.746094 -9.476562 C 6.222656 -9.476562 6.636719 -9.414062 7.003906 -9.308594 C 8.125 -8.96875 8.96875 -8.292969 9.539062 -7.265625 L 10.722656 -7.265625 C 10.320312 -8.25 9.691406 -9.046875 8.816406 -9.660156 C 7.925781 -10.277344 6.957031 -10.582031 5.898438 -10.582031 C 4.4375 -10.582031 3.210938 -10.046875 2.195312 -8.984375 C 1.71875 -8.492188 1.351562 -7.910156 1.089844 -7.265625 C 0.8125 -6.621094 0.691406 -5.929688 0.691406 -5.207031 C 0.691406 -3.734375 1.183594 -2.488281 2.195312 -1.445312 C 3.210938 -0.367188 4.4375 0.152344 5.898438 0.152344 C 6.957031 0.152344 7.925781 -0.152344 8.832031 -0.769531 C 9.707031 -1.382812 10.335938 -2.179688 10.738281 -3.195312 Z M 10.738281 -3.195312 " fill="#000000"/></g></g></g><g fill="#ffffff" fill-opacity="1"><g transform="translate(61.86518, 185.84359)"><g><path d="M 2.226562 0 L 2.226562 -4.667969 L 6.972656 -4.667969 L 6.972656 0 L 8.046875 0 L 8.046875 -10.445312 L 6.972656 -10.445312 L 6.972656 -5.746094 L 2.226562 -5.746094 L 2.226562 -10.445312 L 1.152344 -10.445312 L 1.152344 0 Z M 2.226562 0 " fill="#000000"/></g></g></g><g fill="#ffffff" fill-opacity="1"><g transform="translate(74.49109, 185.84359)"><g><path d="M 2.226562 -7.695312 L 8.09375 0.644531 L 8.09375 -10.445312 L 7.019531 -10.445312 L 7.019531 -2.765625 L 1.152344 -11.105469 L 1.152344 0 L 2.226562 0 Z M 2.226562 -7.695312 " fill="#000000"/></g></g></g><g fill="#ffffff" fill-opacity="1"><g transform="translate(87.163077, 185.84359)"><g><path d="M 10.351562 -5.253906 C 10.351562 -4.054688 9.921875 -3.042969 9.09375 -2.210938 C 8.25 -1.367188 7.234375 -0.953125 6.050781 -0.953125 C 4.867188 -0.953125 3.855469 -1.367188 3.027344 -2.210938 C 2.179688 -3.042969 1.765625 -4.054688 1.765625 -5.253906 C 1.765625 -6.421875 2.179688 -7.433594 3.027344 -8.277344 C 3.855469 -9.109375 4.867188 -9.539062 6.050781 -9.539062 C 7.234375 -9.539062 8.25 -9.109375 9.09375 -8.277344 C 9.921875 -7.433594 10.351562 -6.421875 10.351562 -5.253906 Z M 11.429688 -5.253906 C 11.429688 -5.992188 11.273438 -6.679688 10.996094 -7.34375 C 10.722656 -7.988281 10.335938 -8.554688 9.847656 -9.046875 C 9.355469 -9.523438 8.785156 -9.90625 8.140625 -10.183594 C 7.480469 -10.460938 6.789062 -10.613281 6.050781 -10.613281 C 5.316406 -10.613281 4.609375 -10.460938 3.960938 -10.183594 C 3.316406 -9.90625 2.75 -9.523438 2.257812 -9.046875 C 1.765625 -8.554688 1.382812 -7.988281 1.105469 -7.34375 C 0.828125 -6.679688 0.691406 -5.992188 0.691406 -5.253906 C 0.691406 -4.515625 0.828125 -3.808594 1.105469 -3.164062 C 1.382812 -2.503906 1.765625 -1.933594 2.257812 -1.445312 C 2.75 -0.953125 3.316406 -0.566406 3.960938 -0.292969 C 4.609375 -0.015625 5.316406 0.121094 6.050781 0.121094 C 6.789062 0.121094 7.480469 -0.015625 8.140625 -0.292969 C 8.785156 -0.566406 9.355469 -0.953125 9.847656 -1.445312 C 10.335938 -1.933594 10.722656 -2.503906 10.996094 -3.164062 C 11.273438 -3.808594 11.429688 -4.515625 11.429688 -5.253906 Z M 11.429688 -5.253906 " fill="#000000"/></g></g></g><g fill="#ffffff" fill-opacity="1"><g transform="translate(102.707383, 185.84359)"><g><path d="M 2.226562 -1.074219 L 2.226562 -10.445312 L 1.152344 -10.445312 L 1.152344 0 L 5.960938 0 L 5.960938 -1.074219 Z M 2.226562 -1.074219 " fill="#000000"/></g></g></g><g fill="#ffffff" fill-opacity="1"><g transform="translate(112.399539, 185.84359)"><g><path d="M 10.351562 -5.253906 C 10.351562 -4.054688 9.921875 -3.042969 9.09375 -2.210938 C 8.25 -1.367188 7.234375 -0.953125 6.050781 -0.953125 C 4.867188 -0.953125 3.855469 -1.367188 3.027344 -2.210938 C 2.179688 -3.042969 1.765625 -4.054688 1.765625 -5.253906 C 1.765625 -6.421875 2.179688 -7.433594 3.027344 -8.277344 C 3.855469 -9.109375 4.867188 -9.539062 6.050781 -9.539062 C 7.234375 -9.539062 8.25 -9.109375 9.09375 -8.277344 C 9.921875 -7.433594 10.351562 -6.421875 10.351562 -5.253906 Z M 11.429688 -5.253906 C 11.429688 -5.992188 11.273438 -6.679688 10.996094 -7.34375 C 10.722656 -7.988281 10.335938 -8.554688 9.847656 -9.046875 C 9.355469 -9.523438 8.785156 -9.90625 8.140625 -10.183594 C 7.480469 -10.460938 6.789062 -10.613281 6.050781 -10.613281 C 5.316406 -10.613281 4.609375 -10.460938 3.960938 -10.183594 C 3.316406 -9.90625 2.75 -9.523438 2.257812 -9.046875 C 1.765625 -8.554688 1.382812 -7.988281 1.105469 -7.34375 C 0.828125 -6.679688 0.691406 -5.992188 0.691406 -5.253906 C 0.691406 -4.515625 0.828125 -3.808594 1.105469 -3.164062 C 1.382812 -2.503906 1.765625 -1.933594 2.257812 -1.445312 C 2.75 -0.953125 3.316406 -0.566406 3.960938 -0.292969 C 4.609375 -0.015625 5.316406 0.121094 6.050781 0.121094 C 6.789062 0.121094 7.480469 -0.015625 8.140625 -0.292969 C 8.785156 -0.566406 9.355469 -0.953125 9.847656 -1.445312 C 10.335938 -1.933594 10.722656 -2.503906 10.996094 -3.164062 C 11.273438 -3.808594 11.429688 -4.515625 11.429688 -5.253906 Z M 11.429688 -5.253906 " fill="#000000"/></g></g></g><g fill="#ffffff" fill-opacity="1"><g transform="translate(127.943844, 185.84359)"><g><path d="M 11.457031 -4.882812 L 6.019531 -4.882812 L 6.019531 -3.949219 L 10.261719 -3.949219 C 9.9375 -3.042969 9.398438 -2.304688 8.632812 -1.765625 C 7.863281 -1.214844 7.003906 -0.953125 6.066406 -0.953125 C 4.867188 -0.953125 3.855469 -1.367188 3.011719 -2.210938 C 2.179688 -3.054688 1.765625 -4.085938 1.765625 -5.269531 C 1.765625 -6.453125 2.179688 -7.464844 3.027344 -8.308594 C 3.855469 -9.140625 4.867188 -9.570312 6.066406 -9.570312 C 6.957031 -9.570312 7.773438 -9.308594 8.492188 -8.800781 C 9.230469 -8.292969 9.753906 -7.632812 10.089844 -6.789062 L 11.226562 -6.789062 C 10.875 -7.941406 10.214844 -8.863281 9.261719 -9.570312 C 8.308594 -10.277344 7.203125 -10.644531 5.960938 -10.644531 C 5.285156 -10.644531 4.625 -10.492188 3.976562 -10.214844 C 3.316406 -9.9375 2.75 -9.554688 2.257812 -9.0625 C 1.765625 -8.570312 1.382812 -8.003906 1.105469 -7.359375 C 0.828125 -6.695312 0.691406 -5.992188 0.691406 -5.253906 C 0.691406 -4.515625 0.828125 -3.808594 1.105469 -3.164062 C 1.382812 -2.503906 1.765625 -1.933594 2.257812 -1.445312 C 2.75 -0.953125 3.316406 -0.566406 3.976562 -0.292969 C 4.625 -0.015625 5.328125 0.121094 6.066406 0.121094 C 7.328125 0.121094 8.464844 -0.277344 9.476562 -1.089844 C 10.492188 -1.921875 11.121094 -2.964844 11.351562 -4.238281 Z M 11.457031 -4.882812 " fill="#000000"/></g></g></g><g fill="#ffffff" fill-opacity="1"><g transform="translate(143.518871, 185.84359)"><g><path d="M 2.226562 0 L 2.226562 -10.445312 L 1.152344 -10.445312 L 1.152344 0 Z M 2.226562 0 " fill="#000000"/></g></g></g><g fill="#ffffff" fill-opacity="1"><g transform="translate(150.323351, 185.84359)"><g><path d="M 7.359375 0 L 7.359375 -1 L 2.226562 -1 L 2.226562 -4.714844 L 7.203125 -4.714844 L 7.203125 -5.730469 L 2.226562 -5.730469 L 2.226562 -9.445312 L 7.359375 -9.445312 L 7.359375 -10.445312 L 1.152344 -10.445312 L 1.152344 0 Z M 7.359375 0 " fill="#000000"/></g></g></g><g fill="#ffffff" fill-opacity="1"><g transform="translate(162.258065, 185.84359)"><g><path d="M 4.039062 -4.914062 C 5.390625 -4.59375 6.3125 -4.238281 6.804688 -3.839844 C 7.140625 -3.5625 7.3125 -3.210938 7.3125 -2.78125 C 7.3125 -2.351562 7.21875 -1.996094 7.035156 -1.75 C 6.574219 -1.105469 5.746094 -0.785156 4.578125 -0.785156 C 2.949219 -0.785156 2.027344 -1.335938 1.828125 -2.441406 L 0.566406 -2.441406 C 0.9375 -0.675781 2.273438 0.199219 4.578125 0.199219 C 5.605469 0.199219 6.464844 -0.015625 7.15625 -0.476562 C 7.988281 -1.015625 8.417969 -1.8125 8.417969 -2.855469 C 8.417969 -3.71875 8.078125 -4.378906 7.402344 -4.839844 C 6.925781 -5.175781 6.160156 -5.484375 5.097656 -5.761719 C 4.023438 -6.035156 3.332031 -6.265625 3.011719 -6.4375 C 2.304688 -6.789062 1.949219 -7.28125 1.964844 -7.925781 C 1.964844 -8.265625 2.027344 -8.554688 2.179688 -8.769531 C 2.582031 -9.371094 3.285156 -9.675781 4.300781 -9.675781 C 5.730469 -9.675781 6.542969 -9.214844 6.757812 -8.324219 L 7.925781 -8.324219 C 7.542969 -9.832031 6.328125 -10.597656 4.300781 -10.597656 C 3.378906 -10.597656 2.566406 -10.351562 1.890625 -9.859375 C 1.199219 -9.371094 0.84375 -8.648438 0.84375 -7.664062 C 0.84375 -6.328125 1.921875 -5.40625 4.039062 -4.914062 Z M 4.039062 -4.914062 " fill="#000000"/></g></g></g></svg>